0
SECTION
2
HEADER
9
$INSUNITS
70
4
9
$ACADVER
1
AC1014
9
$HANDSEED
5
FFFF
0
ENDSEC
0
SECTION
2
TABLES
0
TABLE
2
VPORT
5
8
100
AcDbSymbolTable
0
ENDTAB
0
TABLE
2
LTYPE
5
5
100
AcDbSymbolTable
0
LTYPE
5
14
100
AcDbSymbolTableRecord
100
AcDbLinetypeTableRecord
2
BYBLOCK
70
0
0
LTYPE
5
15
100
AcDbSymbolTableRecord
100
AcDbLinetypeTableRecord
2
BYLAYER
70
0
0
ENDTAB
0
TABLE
2
LAYER
5
2
100
AcDbSymbolTable
70
2
0
LAYER
5
50
100
AcDbSymbolTableRecord
100
AcDbLayerTableRecord
2
0
70
0
6
CONTINUOUS
0
ENDTAB
0
TABLE
2
STYLE
5
3
100
AcDbSymbolTable
70
1
0
STYLE
5
11
100
AcDbSymbolTableRecord
100
AcDbTextStyleTableRecord
2
STANDARD
70
0
0
ENDTAB
0
TABLE
2
VIEW
5
6
100
AcDbSymbolTable
70
0
0
ENDTAB
0
TABLE
2
UCS
5
7
100
AcDbSymbolTable
70
0
0
ENDTAB
0
TABLE
2
APPID
5
9
100
AcDbSymbolTable
70
2
0
APPID
5
12
100
AcDbSymbolTableRecord
100
AcDbRegAppTableRecord
2
ACAD
70
0
0
ENDTAB
0
TABLE
2
DIMSTYLE
5
A
100
AcDbSymbolTable
70
1
0
ENDTAB
0
TABLE
2
BLOCK_RECORD
5
1
100
AcDbSymbolTable
70
1
0
BLOCK_RECORD
5
1F
100
AcDbSymbolTableRecord
100
AcDbBlockTableRecord
2
*MODEL_SPACE
0
BLOCK_RECORD
5
1B
100
AcDbSymbolTableRecord
100
AcDbBlockTableRecord
2
*PAPER_SPACE
0
ENDTAB
0
ENDSEC
0
SECTION
2
BLOCKS
0
BLOCK
5
20
100
AcDbEntity
100
AcDbBlockBegin
2
*MODEL_SPACE
0
ENDBLK
5
21
100
AcDbEntity
100
AcDbBlockEnd
0
BLOCK
5
1C
100
AcDbEntity
100
AcDbBlockBegin
2
*PAPER_SPACE
0
ENDBLK
5
1D
100
AcDbEntity
100
AcDbBlockEnd
0
ENDSEC
0
SECTION
2
ENTITIES
0
CIRCLE
5
100
100
AcDbEntity
8
0
100
AcDbCircle
10
0.23295248048282841
20
20.749457236314043
30
0
40
1.2499999999999996
210
0
220
0
230
1
0
LWPOLYLINE
5
101
100
AcDbEntity
8
0
100
AcDbPolyline
90
12
70
1
43
0.0
10
-3.557796984949487
20
21.201348458001014
42
0.19891236737965803
10
-6.1709902832031212
20
14.892541756254641
10
-6.1709902832031371
20
6.4942582437454188
42
0.19891236737965856
10
-3.5577969849495261
20
0.1854515419990338
10
-0.21893874120421097
20
-3.1534067017462935
42
0.19891236737965839
10
6.0898679605421613
20
-5.7665999999999284
10
43.230799999999974
20
-5.7665999999999968
42
0.41421356237309498
10
51.562799999999996
20
2.5653999999999888
10
51.562800000000024
20
18.821399999999979
42
0.41421356237309531
10
43.230800000000038
20
27.153399999999994
10
6.089867960542346
20
27.153400000000065
42
0.19891236737965784
10
-0.21893874120403833
20
24.540206701746456
0
CIRCLE
5
102
100
AcDbEntity
8
0
100
AcDbCircle
10
0.23295248048283174
20
0.63734276368595522
30
0
40
1.25
210
0
220
0
230
1
0
CIRCLE
5
103
100
AcDbEntity
8
0
100
AcDbCircle
10
47.001093357286656
20
-1.204893357286674
30
0
40
1.25
210
0
220
0
230
1
0
CIRCLE
5
104
100
AcDbEntity
8
0
100
AcDbCircle
10
47.001093357286692
20
22.591693357286672
30
0
40
1.25
210
0
220
0
230
1
0
LWPOLYLINE
5
105
100
AcDbEntity
8
0
100
AcDbPolyline
90
4
70
1
43
0.0
10
37.053466796875007
20
5.6817232421875028
10
40.953466796874991
20
5.6817232421874984
10
40.953466796874991
20
15.681723242187504
10
37.053466796875007
20
15.681723242187504
0
LWPOLYLINE
5
106
100
AcDbEntity
8
0
100
AcDbPolyline
90
12
70
1
43
0.0
10
34.746003604741887
20
17.10328571617308
42
0.13165249758739411
10
34.746003604741894
20
17.491514283826856
10
34.597291802942529
20
18.046514283827225
42
0.33945425886339264
10
33.872847433225729
20
18.602400000000337
10
33.538752566774342
20
18.602400000000337
42
0.33945425886339875
10
32.814308197057521
20
18.046514283827172
10
32.665596395258156
20
17.491514283826646
42
0.13165249758738046
10
32.66559639525817
20
17.10328571617293
10
32.8143081970574
20
16.548285716173105
42
0.33945425886336456
10
33.5387525667742
20
15.992399999999998
10
33.872847433225829
20
15.992399999999996
42
0.33945425886338976
10
34.597291802942614
20
16.548285716173105
0
LWPOLYLINE
5
107
100
AcDbEntity
8
0
100
AcDbPolyline
90
13
70
1
43
0.0
10
33.538752566774185
20
5.394400000000001
42
0.33945425886338543
10
32.814308197057393
20
4.8385142838268864
10
32.665596395258127
20
4.2835142838269045
42
0.13165249758741196
10
32.665596395258127
20
3.8952857161731433
10
32.814308197057393
20
3.3402857161731117
42
0.33945425886337982
10
33.5387525667742
20
2.7844000000000002
10
33.872847433225822
20
2.7844000000000007
42
0.33945425886337627
10
34.597291802942621
20
3.3402857161731054
10
34.746003604741887
20
3.8952857161731833
42
0.13165249758739012
10
34.746003604741873
20
4.2835142838269071
10
34.617229522853833
20
4.764105700131136
10
34.597291802942614
20
4.8385142838268846
42
0.33945425886337394
10
33.872847433225814
20
5.3944000000000036
0
ENDSEC
0
SECTION
2
OBJECTS
0
DICTIONARY
5
C
100
AcDbDictionary
3
ACAD_GROUP
350
D
3
ACAD_MLINESTYLE
350
17
0
DICTIONARY
5
D
100
AcDbDictionary
0
DICTIONARY
5
1A
330
C
100
AcDbDictionary
0
DICTIONARY
5
17
100
AcDbDictionary
0
ENDSEC
0
EOF
